<svg xmlns="http://www.w3.org/2000/svg" viewBox="0 0 208.45 115.63"><defs><style>.cls-1,.cls-5{fill:#c4902c;}.cls-2,.cls-4{fill:none;}.cls-2,.cls-3,.cls-4,.cls-5{stroke:#4c6d3f;stroke-miterlimit:10;}.cls-2{stroke-width:1.5px;}.cls-3,.cls-7{fill:#fff;}.cls-3,.cls-4,.cls-5{stroke-width:2px;}.cls-6{fill:#4c6d3f;}</style></defs><g id="圖層_2" data-name="圖層 2"><g id="圖層_1-2" data-name="圖層 1"><ellipse class="cls-1" cx="84.65" cy="47.01" rx="12.43" ry="12.24" transform="translate(11.32 110.24) rotate(-69.81)"/><line class="cls-2" x1="87.06" y1="30.8" x2="91.89" y2="10.85"/><line class="cls-2" x1="75.04" y1="33.94" x2="64.56" y2="16.52"/><line class="cls-2" x1="68.65" y1="44.75" x2="48.99" y2="40.05"/><line class="cls-2" x1="71.64" y1="56.88" x2="54.32" y2="67.66"/><line class="cls-2" x1="94.27" y1="60.08" x2="104.75" y2="77.5"/><line class="cls-2" x1="100.65" y1="49.28" x2="120.31" y2="53.97"/><line class="cls-2" x1="82.21" y1="61.42" x2="77.37" y2="81.37"/><line class="cls-2" x1="78.39" y1="20.35" x2="80.82" y2="30.37"/><line class="cls-2" x1="61.55" y1="32.84" x2="70.29" y2="38.11"/><line class="cls-2" x1="58.25" y1="53.62" x2="68.17" y2="51.06"/><line class="cls-2" x1="70.41" y1="70.54" x2="75.71" y2="61.65"/><line class="cls-2" x1="90.92" y1="73.67" x2="88.49" y2="63.66"/><line class="cls-2" x1="107.75" y1="61.19" x2="99.02" y2="55.92"/><line class="cls-2" x1="111.06" y1="40.4" x2="101.14" y2="42.96"/><line class="cls-2" x1="98.9" y1="23.49" x2="93.6" y2="32.38"/><polygon class="cls-3" points="124.83 99.6 107.17 99.6 106.56 66.14 106.7 65.87 124.83 99.6"/><polyline class="cls-4" points="175.87 99.6 175.88 99.6 193.75 99.6 208.45 99.6"/><line class="cls-4" x1="47.58" y1="99.6" y2="99.6"/><polygon class="cls-5" points="107.17 99.6 90.04 99.6 106.56 66.14 107.17 99.6"/><line class="cls-4" x1="125.24" y1="100.37" x2="124.83" y2="99.6"/><line class="cls-4" x1="106.56" y1="66.14" x2="106.55" y2="65.69"/><line class="cls-4" x1="195.49" y1="41.1" x2="183.63" y2="57.61"/><line class="cls-4" x1="204.77" y1="56.7" x2="195.49" y2="41.1"/><line class="cls-4" x1="195.49" y1="41.1" x2="193.74" y2="99.96"/><line class="cls-4" x1="194.97" y1="58.66" x2="186.19" y2="72.46"/><line class="cls-4" x1="195.29" y1="58.5" x2="203.05" y2="72.46"/><line class="cls-4" x1="194.56" y1="50.34" x2="185.01" y2="64.87"/><line class="cls-4" x1="205.09" y1="65.48" x2="195.85" y2="50.73"/><line class="cls-4" x1="176.62" y1="63.57" x2="167.78" y2="75.88"/><line class="cls-4" x1="183.38" y1="76.12" x2="176.62" y2="63.57"/><line class="cls-4" x1="176.62" y1="63.57" x2="175.6" y2="98.06"/><line class="cls-4" x1="176.27" y1="75.49" x2="170.31" y2="84.85"/><line class="cls-4" x1="176.49" y1="75.38" x2="181.75" y2="84.85"/><line class="cls-4" x1="175.99" y1="69.84" x2="169.51" y2="79.7"/><line class="cls-4" x1="183.13" y1="80.11" x2="176.86" y2="70.11"/><line class="cls-4" x1="194.63" y1="70.23" x2="188.97" y2="77.92"/><line class="cls-4" x1="199.17" y1="77.69" x2="194.74" y2="71.12"/><line class="cls-4" x1="47.11" y1="63.57" x2="38.27" y2="75.88"/><line class="cls-4" x1="53.86" y1="76.12" x2="47.11" y2="63.57"/><line class="cls-4" x1="47.11" y1="63.57" x2="46.08" y2="98.06"/><line class="cls-4" x1="46.75" y1="75.49" x2="40.8" y2="84.85"/><line class="cls-4" x1="46.97" y1="75.38" x2="52.23" y2="84.85"/><line class="cls-4" x1="46.47" y1="69.84" x2="40" y2="79.7"/><line class="cls-4" x1="53.62" y1="80.11" x2="47.35" y2="70.11"/><line class="cls-4" x1="28.48" y1="38.12" x2="16.62" y2="54.62"/><line class="cls-4" x1="37.77" y1="53.71" x2="28.48" y2="38.12"/><line class="cls-4" x1="28.48" y1="38.12" x2="26.71" y2="97.95"/><line class="cls-4" x1="27.96" y1="55.68" x2="19.18" y2="69.48"/><line class="cls-4" x1="28.29" y1="55.51" x2="36.04" y2="69.48"/><line class="cls-4" x1="27.55" y1="47.36" x2="18.01" y2="61.88"/><line class="cls-4" x1="38.08" y1="62.49" x2="28.84" y2="47.74"/><line class="cls-4" x1="27.62" y1="67.25" x2="21.97" y2="74.93"/><line class="cls-4" x1="32.16" y1="74.71" x2="27.73" y2="68.13"/><line class="cls-4" x1="122.15" y1="0.6" x2="106.89" y2="20.86"/><polygon class="cls-3" points="175.87 99.6 124.83 99.6 106.7 65.87 106.56 66.14 90.04 99.6 47.58 99.6 106.89 20.86 175.87 99.6"/><line class="cls-4" x1="106.89" y1="20.86" x2="89.31" y2="0.8"/><polyline class="cls-4" points="106.7 65.87 106.7 65.86 109.13 60.93"/><line class="cls-4" x1="106.7" y1="65.87" x2="104.22" y2="61.26"/><polygon class="cls-6" points="95.03 104.57 84.33 104.57 84.33 106.53 88.53 106.53 88.53 115.6 90.83 115.6 90.83 106.53 95.03 106.53 95.03 104.57"/><rect class="cls-6" x="109.85" y="104.78" width="2.13" height="10.82"/><polygon class="cls-6" points="66.78 113.47 59.84 113.47 59.84 104.91 57.71 104.91 57.71 115.6 58.58 115.6 59.84 115.6 66.78 115.6 67.64 115.6 68.91 115.6 68.91 104.78 66.78 104.78 66.78 113.47"/><polygon class="cls-6" points="37.69 104.78 37.28 104.78 33.61 108.46 29.93 104.78 29.49 104.78 28.42 104.78 27.67 104.78 27.36 104.78 27.36 115.6 29.49 115.6 29.49 107.36 32.1 109.97 32.1 109.97 33.61 111.48 37.69 107.39 37.69 115.6 39.82 115.6 39.82 104.78 38.2 104.78 37.69 104.78"/><rect class="cls-7" x="45.93" y="106.57" width="5.66" height="6.76"/><path class="cls-6" d="M43.67,104.57v11.06h10.2V104.57Zm2.26,2H51.6v6.76H45.93Z"/><polygon class="cls-6" points="80.45 110.58 75.28 104.78 74.92 104.78 73.85 104.78 72.86 104.78 72.79 104.78 72.79 115.6 74.92 115.6 74.92 107.58 80.45 113.78 80.45 115.6 82.58 115.6 82.58 104.78 80.45 104.78 80.45 110.58"/><polygon class="cls-6" points="102.48 104.78 102.15 104.78 100.73 104.78 100.35 104.78 99.8 104.78 94.79 115.6 97.14 115.6 100.35 108.66 100.35 115.6 102.48 115.6 102.48 108.74 105.52 115.6 107.85 115.6 103.06 104.78 102.48 104.78"/><polygon class="cls-6" points="144.05 112.82 140.63 104.53 138.19 104.53 142.96 115.41 145.14 115.41 149.91 104.53 147.46 104.53 144.05 112.82"/><rect class="cls-6" x="151.26" y="104.53" width="2.22" height="10.87"/><polygon class="cls-6" points="158.5 110.45 164.74 110.45 164.74 108.64 158.5 108.64 158.5 106.47 165.55 106.47 165.55 104.53 156.29 104.53 156.29 115.41 165.69 115.41 165.69 113.48 158.5 113.48 158.5 110.45"/><polygon class="cls-6" points="181.82 104.53 178.86 111.58 178.34 113.25 177.67 111.61 176.57 108.99 178.52 104.53 176.25 104.53 175.51 106.65 174.71 104.53 172.44 104.53 174.4 108.99 173.31 111.55 172.78 113.25 172.09 111.55 169.15 104.53 166.74 104.53 171.54 115.41 173.72 115.41 174.7 113.25 175.49 111.15 176.28 113.25 177.24 115.41 179.43 115.41 184.23 104.53 181.82 104.53"/><polygon class="cls-6" points="116.66 104.56 115.65 104.56 115.58 104.56 115.58 115.6 117.75 115.6 117.75 107.41 115.85 105.28 115.87 105.27 115.87 105.27 116.66 104.56"/><polygon class="cls-6" points="123.25 110.35 118.09 104.56 117.73 104.56 116.66 104.56 115.87 105.27 115.87 105.27 117.73 107.35 123.25 113.55 123.25 115.38 125.39 115.38 125.39 104.56 123.25 104.56 123.25 110.35"/></g></g></svg>